<svg xmlns="http://www.w3.org/2000/svg" viewBox="0 0 693 720"><defs><style>.cls-1,.cls-2,.cls-3{fill:#146eb4;stroke:#45accb;stroke-miterlimit:10;}.cls-1{stroke-width:20px;}.cls-2{stroke-width:11px;}.cls-3{stroke-linecap:round;stroke-width:12px;} circle,rect{fill:#45accb;}</style></defs><rect class="cls-1" x="10" y="10" width="673" height="660"/><line class="cls-1" x1="10" y1="116" x2="683" y2="116"/><line class="cls-1" x1="229" y1="123" x2="229" y2="670"/><line class="cls-1" x1="460.99" y1="116" x2="460.99" y2="670"/><line class="cls-2" x1="58" y1="177" x2="181" y2="177"/><line class="cls-2" x1="58" y1="216.5" x2="181" y2="216.5"/><line class="cls-2" x1="58" y1="256.5" x2="181" y2="256.5"/><line class="cls-2" x1="58.17" y1="544.29" x2="181.17" y2="544.29"/><line class="cls-2" x1="58.17" y1="583.79" x2="181.17" y2="583.79"/><line class="cls-2" x1="58.17" y1="623.79" x2="181.17" y2="623.79"/><line class="cls-2" x1="278.08" y1="176.65" x2="401.08" y2="176.65"/><line class="cls-2" x1="278.08" y1="216.15" x2="401.08" y2="216.15"/><line class="cls-2" x1="278.08" y1="256.15" x2="401.08" y2="256.15"/><line class="cls-2" x1="278.25" y1="543.94" x2="401.25" y2="543.94"/><line class="cls-2" x1="278.25" y1="583.44" x2="401.25" y2="583.44"/><line class="cls-2" x1="278.25" y1="623.44" x2="401.25" y2="623.44"/><line class="cls-2" x1="513.08" y1="172.65" x2="636.08" y2="172.65"/><line class="cls-2" x1="513.08" y1="212.15" x2="636.08" y2="212.15"/><line class="cls-2" x1="513.08" y1="252.15" x2="636.08" y2="252.15"/><line class="cls-2" x1="513.25" y1="539.94" x2="636.25" y2="539.94"/><line class="cls-2" x1="513.25" y1="579.44" x2="636.25" y2="579.44"/><line class="cls-2" x1="513.25" y1="619.44" x2="636.25" y2="619.44"/><rect x="38" y="670" width="20" height="50"/><rect x="637" y="670" width="20" height="50"/><circle cx="57.5" cy="363.5" r="23.5"/><line class="cls-3" x1="57" y1="383" x2="57" y2="418"/><circle cx="278.5" cy="364.5" r="23.5"/><line class="cls-3" x1="278" y1="384" x2="278" y2="419"/><circle cx="513.5" cy="360.5" r="23.5"/><line class="cls-3" x1="513" y1="380" x2="513" y2="415"/>

<path d="m221.503 210.324c-105.235 50.083-170.545 8.18-212.352-17.271-2.587-1.604-6.984.375-3.169 4.757 13.928 16.888 59.573 57.593 119.153 57.593 59.621 0 95.09-32.532 99.527-38.207 4.407-5.627 1.294-8.731-3.16-6.872zm29.555-16.322c-2.826-3.68-17.184-4.366-26.22-3.256-9.05 1.078-22.634 6.609-21.453 9.93.606 1.244 1.843.686 8.06.127 6.234-.622 23.698-2.826 27.337 1.931 3.656 4.79-5.57 27.608-7.255 31.288-1.628 3.68.622 4.629 3.68 2.178 3.016-2.45 8.476-8.795 12.14-17.774 3.639-9.028 5.858-21.622 3.71-24.424z" fill="#f90" fill-rule="nonzero" transform="scale(2.3 2.3) translate(20.0 -15.0)"/>
</svg>