<svg xmlns="http://www.w3.org/2000/svg" viewBox="0 0 51 32">
    <!--<rect x="0" y="0" width="100%" height="100%" fill="black" />-->
    <path fill="#fff" d="M44.5688 32.0225L51.375 0H6.8063L0 32.0225z"/>
    <path fill="#15569c" d="M49.907 1.1791l-42.154.002-.0254.1406s24.782 5.0883 25.273 5.1758c5.6938 1.005 5.5176 2.1035 5.5176 2.1035 3.99-.02 4.4802.1414 5.1777.7226 2.0975 1.7525-1.3125 6.916-1.3125 6.916-.4875.36-37.352 14.596-37.352 14.596h38.568l6.3066-29.656zm8.082 0l-1.6016 7.5371c-.5737 2.6038 1.1824 3.7832 4.1074 3.7832 2.9362 0 5.1678-1.1795 5.7266-3.7832 1.6288-7.5375-.0173.0004 1.6289-7.5371h-2.4551s-1.2401 5.7985-1.4551 6.791c-.37 1.7388-1.2872 2.7773-3.0859 2.7773-1.8788-.015-2.2639-1.0548-1.8789-2.7773-.0437.1737 1.4609-6.791 1.4609-6.791h-2.4473zm12.213 0l-2.3594 11.119h2.1738l1.7168-8.252h.0488l2.7461 8.252h3.086l2.3554-11.119h-2.1699l-1.752 8.3438h-.0293l-2.6387-8.3438H70.202zm12.121 0l-2.3535 11.119h2.4492l2.3574-11.119zm4.0957 0L86.03 2.9486h3.459l-1.9863 9.3496h2.4512l1.9844-9.3496h3.457l.373-1.7695h-9.3495zm10.996 0l-2.373 11.119h8.0586l.375-1.7695h-5.5957l.6367-3.0391h4.8828l.3535-1.6426h-4.8809l.6172-2.8984h5.6016l.3692-1.7695h-8.045zm9.832 0l-2.3535 11.119h5.0215c3.1025 0 6.0793-2.0456 6.748-6.0469.4775-2.8375-.6545-5.0723-4.0195-5.0723h-5.3965zm18.432 0c-2.8812 0-4.3136 1.023-4.5273 2.623-.3563 2.6638 4.357 4.2468 4.002 5.8418-.2188.9325-1.3649.8848-2.2949.8848h-3.0215l-.375 1.7695h3.7539c3.0712 0 4.4041-1.1018 4.6504-2.623.4475-2.7288-4.3405-4.138-3.9668-5.9043.1225-.5438.7248-.8223 2.0586-.8223h2.6211l.3848-1.7695h-3.2852zm4.5449 0l-.3848 1.7695h3.457l-1.9844 9.3496h2.4492l1.9844-9.3496h3.459l.373-1.7695h-9.3534zm11.949 0l-6.3711 11.119h2.4512l4.8828-8.9141.9785 7.1445h-3.5078l-.959 1.7695h7.1914l-1.7344-11.119h-2.9316zm5.6367 0l-.3867 1.7695h3.457l-1.9844 9.3496h2.4492l1.9844-9.3496h3.455l.375-1.7695h-9.3495zm10.984 0l-2.375 11.119h8.0625l.375-1.7695h-5.6016l.6367-3.0391h4.8848l.3555-1.6426h-4.8828l.621-2.8984h5.5958l.373-1.7695h-8.0449zm13.436 0c-2.885 0-4.3118 1.023-4.5293 2.623-.3563 2.6638 4.357 4.2468 4.002 5.8418-.2188.9325-1.3669.8848-2.2969.8848h-3.0234l-.3711 1.7695h3.75c3.0712 0 4.4063-1.1018 4.6563-2.623.4462-2.7288-4.3427-4.138-3.9727-5.9043.125-.5438.7307-.8223 2.0644-.8223h2.6152l.3926-1.7695h-3.2871zm-62.889 1.7695h2.5c2.0288 0 2.7541 1.5052 2.4453 3.2715-.4325 2.4975-2.0302 4.3086-4.8027 4.3086h-1.752zm-81.338 5.088c-1.1176-.0088-1.9041.0073-1.9941.002H6.3012l-4.842 22.805s14.831-7.2785 16.645-8.211c3.7163-1.9088 8.8556-4.4313 13.605-6.0488.905-.3062 4.7817-1.5018 7.0392-1.9043.875-.1562 1.2476-.305 1.2363-.4687-.0338-.4675-.9143-.4983-2.4043-.4258-4.5462.2138-13.258 3.6834-15.766 5.006l-2.8301-8.7735h18.088c.609-1.7067-5.717-1.9546-9.07-1.9809zm9.5898 2.1133c-.1313 0-.244.0887-.3965.295-.1387.1787-.2513.2991-.6113.4804-.5588.275-2.0194.4288-2.7031.4863-.6563.055-.8345.1213-.8457.375-.0063.2263.0978.3555 1.039.3555 2.1663 0 6.0653-.8171 7.2403-.4434.62.1988.122 1.3034-.3867 2.756-.1975.5612.189.5216.414.2753.225-.2475 1.2357-2.0985 1.3457-3.041.1563-1.3388-.9924-1.539-2.5762-1.539h-2.5195zm32.047 9.3652c-3.4412 0-6.3084 1.7982-7.1484 5.752-.6638 3.1625 1.2593 5.7656 4.6855 5.7656 3.4738 0 6.2641-1.7181 7.1328-5.7656.7112-3.3012-1.2587-5.752-4.6699-5.752zm98.146 0c-3.4125 0-6.6964 1.7657-7.5352 5.752-.8512 3.9838 1.6741 5.7656 5.0879 5.7656.9437 0 1.8486-.1066 2.7461-.2441l.6035-1.9121c-.8825.2187-1.8167.3906-2.9805.3906-2.2175 0-3.4696-1.4875-2.9434-4 .5275-2.5125 2.4178-3.9863 4.6328-3.9863 1.135 0 1.908.1549 2.6055.3574l.2188-1.875c-.7888-.1388-1.6105-.248-2.4355-.248zm-87.484.1992c-2.8862 0-4.315 1.0243-4.5312 2.623-.3563 2.6675 4.3564 4.2482 4.0039 5.8457-.2175.93-1.3669.8828-2.2969.8828h-3.0234l-.375 1.7676h3.7559c3.07 0 4.4029-1.101 4.6504-2.621.45-2.7276-4.34-4.14-3.9688-5.9063.1238-.5437.729-.8222 2.0664-.8222h2.6152l.3906-1.7695h-3.287zm4.543 0l-.3867 1.7695h3.457L85.93 30.8334h2.4492l1.9883-9.3496h3.455l.3692-1.7695H84.844zm35.789 0c-2.8862 0-4.3143 1.0243-4.5293 2.623-.3588 2.6675 4.3544 4.2482 4.002 5.8457-.2175.93-1.3669.8828-2.2969.8828h-3.0234l-.373 1.7676h3.7539c3.0688 0 4.4029-1.101 4.6504-2.621.45-2.7276-4.339-4.14-3.9727-5.9063.125-.5437.7326-.8222 2.0664-.8222h2.619l.3868-1.7695h-3.2832zm5.4062 0l-2.373 11.119h8.0644l.371-1.7676h-5.5975l.6367-3.041h4.8848l.3555-1.6445h-4.8828l.6172-2.8965h5.5996l.369-1.7695h-8.0448zm9.8262 0l-2.3574 11.119h2.4492l1.9844-9.3652h2.2012c1.3638 0 1.4864.7583 1.3476 1.457-.2613 1.3175-1.4098 1.8438-2.666 1.8438-.2325 0-.6229.0163-.9316-.0312l2.0176 6.0957h2.6816l-1.8301-4.793c1.6288-.2313 3.0265-1.3933 3.1777-3.4883.1425-1.8613-.7258-2.838-2.8945-2.838h-5.1797zm36.334 0l-2.3672 11.119h8.0625l.371-1.7676h-5.5956l.6348-3.041h4.8848l.3554-1.6445h-4.8828l.6211-2.8965h5.5957l.3711-1.7695h-8.0508zm-118.14.002l-2.3574 11.117h2.4512l1.9844-9.3496h1.998c.9025 0 1.5191.4482 1.2578 1.6582-.1375.6663-.745 1.8145-2.4199 1.8145-.3712 0-.7733-.0469-1.082-.0781l.123 1.6152c.355.0312.7754.0898 1.1642.0898 2.2011 0 4.1385-1.2696 4.5897-3.3809.2938-1.3938.0139-3.4863-2.3886-3.4863h-5.3203zm42.75 0l-6.3672 11.117h2.4453l4.8887-8.916.9727 7.1484h-3.502l-.961 1.7676h7.1914l-1.7324-11.117h-2.9355zm8.3027 0l-2.3555 11.117h7.5215l.3867-1.7676h-5.0703l1.9844-9.3496h-2.4668zm40.129 0l1.6738 11.117h2.8965l6.3301-11.117h-2.4199l-4.8828 8.918-1.1484-8.918h-2.4492zm12.377 0l-2.3555 11.117h2.4492l2.3574-11.117h-2.4512zm-88.366 1.565c2.2638 0 3.0249 1.7351 2.5449 3.9863-.5313 2.5125-2.0181 4-4.2344 4-2.2962 0-3.0562-1.845-2.5762-4 .5737-2.5125 2.0494-3.9863 4.2656-3.9863z"/><path fill="#ed192d" d="M54.9313 15.5975l-.1738.825h126.2l.17-.825H54.94z"/>
</svg>